<svg width="52" height="41" viewBox="0 0 52 41" fill="none" xmlns="http://www.w3.org/2000/svg">
<path fill-rule="evenodd" clip-rule="evenodd" d="M11.7508 13.1108L15.6859 9.37425L12.9082 6.80539L14.76 4.70359L17.3063 6.80539V0.5H21.01V6.80539L23.3248 4.70359L25.4082 6.80539L22.6304 9.37425L26.5656 13.1108L29.8063 10.0749L31.8896 11.9431L30.5008 14.512L36.7508 13.1108L37.6767 15.6796L31.8896 17.7814L34.4359 19.4162L32.8156 22.2186L28.8804 20.3503L27.723 25.2545L32.3526 26.4222V29.6916H28.6489L31.6582 33.8952L29.1119 35.5299L26.1026 31.7934L25.4082 34.8293L22.1674 34.1287L22.8619 29.4581H15.6859L16.1489 34.1287L13.1396 34.8293L12.4452 31.7934L9.20446 35.5299L6.88965 33.8952L10.1304 29.6916H5.96372V26.4222L10.5934 25.2545L9.66743 20.3503L5.50076 22.2186L3.88039 19.4162L6.42669 17.7814L0.639648 15.6796L1.56557 13.1108L7.35261 14.512L6.42669 11.9431L8.7415 10.0749L11.7508 13.1108ZM19.1582 14.7455L14.0656 18.7156L16.1489 24.0868H22.1674L24.2508 18.7156L19.1582 14.7455Z" fill="white"/>
<path fill-rule="evenodd" clip-rule="evenodd" d="M43.4637 29.2246V27.1228L44.8526 26.1886L46.2415 27.1228V29.2246L47.3989 30.1587L49.0193 28.991H50.6396V30.8593L49.0193 32.0269V33.8952L50.6396 35.0629V36.9311H48.7878L47.6304 35.997L46.2415 36.9311V38.5659L44.8526 39.5L43.4637 38.5659V36.9311L42.0748 35.997L40.9174 36.9311H39.0656V35.0629L40.6859 33.8952V32.0269L39.0656 30.8593V28.991H40.9174L42.3063 30.1587L43.4637 29.2246ZM43.6952 31.7934L43.2322 32.9611L43.6952 34.1287L44.8526 34.5958L46.01 34.1287L46.473 32.9611L46.01 31.7934L44.8526 31.3263L43.6952 31.7934Z" fill="white"/>
<path fill-rule="evenodd" clip-rule="evenodd" d="M11.7508 13.1108L15.6859 9.37425L12.9082 6.80539L14.76 4.70359L17.3063 6.80539V0.5H21.01V6.80539L23.3248 4.70359L25.4082 6.80539L22.6304 9.37425L26.5656 13.1108L29.8063 10.0749L31.8896 11.9431L30.5008 14.512L36.7508 13.1108L37.6767 15.6796L31.8896 17.7814L34.4359 19.4162L32.8156 22.2186L28.8804 20.3503L27.723 25.2545L32.3526 26.4222V29.6916H28.6489L31.6582 33.8952L29.1119 35.5299L26.1026 31.7934L25.4082 34.8293L22.1674 34.1287L22.8619 29.4581H15.6859L16.1489 34.1287L13.1396 34.8293L12.4452 31.7934L9.20446 35.5299L6.88965 33.8952L10.1304 29.6916H5.96372V26.4222L10.5934 25.2545L9.66743 20.3503L5.50076 22.2186L3.88039 19.4162L6.42669 17.7814L0.639648 15.6796L1.56557 13.1108L7.35261 14.512L6.42669 11.9431L8.7415 10.0749L11.7508 13.1108ZM19.1582 14.7455L14.0656 18.7156L16.1489 24.0868H22.1674L24.2508 18.7156L19.1582 14.7455Z" stroke="white"/>
<path fill-rule="evenodd" clip-rule="evenodd" d="M43.4637 29.2246V27.1228L44.8526 26.1886L46.2415 27.1228V29.2246L47.3989 30.1587L49.0193 28.991H50.6396V30.8593L49.0193 32.0269V33.8952L50.6396 35.0629V36.9311H48.7878L47.6304 35.997L46.2415 36.9311V38.5659L44.8526 39.5L43.4637 38.5659V36.9311L42.0748 35.997L40.9174 36.9311H39.0656V35.0629L40.6859 33.8952V32.0269L39.0656 30.8593V28.991H40.9174L42.3063 30.1587L43.4637 29.2246ZM43.6952 31.7934L43.2322 32.9611L43.6952 34.1287L44.8526 34.5958L46.01 34.1287L46.473 32.9611L46.01 31.7934L44.8526 31.3263L43.6952 31.7934Z" stroke="white"/>
</svg>
